<?xml version="1.0" encoding="utf-8"?>
<svg width="500px" height="183px" viewBox="0 0 500 183" version="1.1" xmlns:xlink="http://www.w3.org/1999/xlink" xmlns="http://www.w3.org/2000/svg">
  <defs>
    <linearGradient gradientUnits="userSpaceOnUse" x1="0" y1="0" x2="418" y2="89.5" id="gradient_1">
      <stop offset="0%" stop-color="#09016E" />
      <stop offset="100%" stop-color="#9C022D" />
    </linearGradient>
    <path d="M173.32 116.151Q179.6 121.631 191.2 121.631Q197.28 121.631 202.52 119.431Q207.76 117.231 210.96 113.071Q214.16 108.911 214.16 103.151Q214.16 97.0714 211.2 93.7114Q208.24 90.3514 204.2 89.0314Q200.16 87.7114 192.96 86.2714Q188.56 85.3114 185.68 84.1114Q182.8 82.9114 182.8 80.3514Q182.8 78.0314 184.96 76.6714Q187.12 75.3114 191.04 75.3114Q195.92 75.3114 198.24 77.3514Q200.56 79.3914 200.56 83.7114L213.6 83.7114Q213.6 81.3914 213.28 78.9514Q212.96 76.5114 211.44 73.8714Q208.4 68.3514 203.08 65.6314Q197.76 62.9114 190.48 62.9114Q184.48 62.9114 179.4 64.9114Q174.32 66.9114 171.28 70.9514Q168.24 74.9914 168.24 80.7514Q168.24 86.5114 171.28 90.0314Q174.32 93.5514 178.8 95.2714Q183.28 96.9914 189.44 98.1914Q190 98.2714 192.4 98.7114Q194.8 99.1514 197.24 100.191Q199.68 101.231 199.68 103.551Q199.68 106.351 197.28 107.711Q194.88 109.071 190.72 109.071Q185.68 109.071 182.88 106.671Q180.08 104.271 180.16 99.7114L167.12 99.7114Q167.04 110.671 173.32 116.151ZM223.76 120.191L250 63.3114L276.24 120.191L223.76 120.191ZM394.64 120.191L342.16 120.191L368.4 63.3114L394.64 120.191ZM52.4 64.5114L92.96 64.5114L92.96 78.5914L66.96 78.5914L66.96 85.6314L88.56 85.6314L88.56 98.9914L66.96 98.9914L66.96 106.111L92.96 106.111L92.96 120.191L52.4 120.191L52.4 64.5114ZM132.4 87.7114L155.6 120.191L110.8 120.191L110.8 64.5114L155.6 64.5114L132.4 87.7114ZM331.28 67.4714L331.28 64.5114L290 64.5114L290 120.191L292.96 120.191L292.96 99.3914L323.68 99.3914L323.68 85.3114L292.96 85.3114L292.96 67.4714L331.28 67.4714ZM407.84 120.191L450.64 120.191L436.48 100.431Q442.32 98.8314 446.16 93.9114Q450 88.9914 450 82.7514Q450 77.7114 447.6 73.5514Q445.2 69.3914 440.88 66.9914Q436.48 64.5114 429.52 64.5114L407.84 64.5114L407.84 120.191ZM434.64 97.8714L412.88 67.4714L429.6 67.4714Q435.28 67.4714 438.8 69.2314Q442.72 71.1514 444.88 74.7514Q447.04 78.3514 447.04 82.7514Q447.04 88.2714 443.52 92.5114Q440 96.7514 434.64 97.8714ZM410.8 98.1114L410.8 69.3914L431.36 98.1114L410.8 98.1114ZM228.4 117.231L271.6 117.231L250 70.3514L228.4 117.231ZM346.8 117.231L390 117.231L368.4 70.3514L346.8 117.231ZM130.32 89.7914L113.76 106.351L113.76 117.231L149.92 117.231L130.32 89.7914ZM445.04 117.231L410.8 117.231L410.8 101.071L430.88 101.071L433.36 100.991L445.04 117.231Z" id="path_1" />
    <clipPath id="mask_1">
      <use xlink:href="#path_1" />
    </clipPath>
  </defs>
  <g id="Group">
    <g id="Rectangle-Mask">
      <g id="EKSAFAR" fill="#000000" fill-opacity="0">
        <path d="M173.32 116.151Q179.6 121.631 191.2 121.631Q197.28 121.631 202.52 119.431Q207.76 117.231 210.96 113.071Q214.16 108.911 214.16 103.151Q214.16 97.0714 211.2 93.7114Q208.24 90.3514 204.2 89.0314Q200.16 87.7114 192.96 86.2714Q188.56 85.3114 185.68 84.1114Q182.8 82.9114 182.8 80.3514Q182.8 78.0314 184.96 76.6714Q187.12 75.3114 191.04 75.3114Q195.92 75.3114 198.24 77.3514Q200.56 79.3914 200.56 83.7114L213.6 83.7114Q213.6 81.3914 213.28 78.9514Q212.96 76.5114 211.44 73.8714Q208.4 68.3514 203.08 65.6314Q197.76 62.9114 190.48 62.9114Q184.48 62.9114 179.4 64.9114Q174.32 66.9114 171.28 70.9514Q168.24 74.9914 168.24 80.7514Q168.24 86.5114 171.28 90.0314Q174.32 93.5514 178.8 95.2714Q183.28 96.9914 189.44 98.1914Q190 98.2714 192.4 98.7114Q194.8 99.1514 197.24 100.191Q199.68 101.231 199.68 103.551Q199.68 106.351 197.28 107.711Q194.88 109.071 190.72 109.071Q185.68 109.071 182.88 106.671Q180.08 104.271 180.16 99.7114L167.12 99.7114Q167.04 110.671 173.32 116.151ZM223.76 120.191L250 63.3114L276.24 120.191L223.76 120.191ZM394.64 120.191L342.16 120.191L368.4 63.3114L394.64 120.191ZM52.4 64.5114L92.96 64.5114L92.96 78.5914L66.96 78.5914L66.96 85.6314L88.56 85.6314L88.56 98.9914L66.96 98.9914L66.96 106.111L92.96 106.111L92.96 120.191L52.4 120.191L52.4 64.5114ZM132.4 87.7114L155.6 120.191L110.8 120.191L110.8 64.5114L155.6 64.5114L132.4 87.7114ZM331.28 67.4714L331.28 64.5114L290 64.5114L290 120.191L292.96 120.191L292.96 99.3914L323.68 99.3914L323.68 85.3114L292.96 85.3114L292.96 67.4714L331.28 67.4714ZM407.84 120.191L450.64 120.191L436.48 100.431Q442.32 98.8314 446.16 93.9114Q450 88.9914 450 82.7514Q450 77.7114 447.6 73.5514Q445.2 69.3914 440.88 66.9914Q436.48 64.5114 429.52 64.5114L407.84 64.5114L407.84 120.191ZM434.64 97.8714L412.88 67.4714L429.6 67.4714Q435.28 67.4714 438.8 69.2314Q442.72 71.1514 444.88 74.7514Q447.04 78.3514 447.04 82.7514Q447.04 88.2714 443.52 92.5114Q440 96.7514 434.64 97.8714ZM410.8 98.1114L410.8 69.3914L431.36 98.1114L410.8 98.1114ZM228.4 117.231L271.6 117.231L250 70.3514L228.4 117.231ZM346.8 117.231L390 117.231L368.4 70.3514L346.8 117.231ZM130.32 89.7914L113.76 106.351L113.76 117.231L149.92 117.231L130.32 89.7914ZM445.04 117.231L410.8 117.231L410.8 101.071L430.88 101.071L433.36 100.991L445.04 117.231Z" />
      </g>
      <g clip-path="url(#mask_1)">
        <path d="M44 40.5L462 40.5L462 130L44 130L44 40.5Z" id="Rectangle" fill="url(#gradient_1)" fill-rule="evenodd" stroke="none" />
      </g>
    </g>
    <g id=".CLUB" fill="#2A2A2A" transform="translate(299 123.99994)">
      <path d="M71.88 24.3075Q72.12 24.3075 72.315 24.5025L73.455 25.7475Q72.135 27.2775 70.2525 28.1325Q68.37 28.9875 65.715 28.9875Q63.39 28.9875 61.5 28.185Q59.61 27.3825 58.275 25.935Q56.94 24.4875 56.205 22.4625Q55.47 20.4375 55.47 18.0075Q55.47 15.5775 56.2575 13.5525Q57.045 11.5275 58.47 10.0725Q59.895 8.6175 61.8825 7.815Q63.87 7.0125 66.27 7.0125Q68.64 7.0125 70.3575 7.7475Q72.075 8.4825 73.41 9.7425L72.465 11.0775Q72.36 11.2275 72.225 11.325Q72.09 11.4225 71.835 11.4225Q71.64 11.4225 71.4225 11.28Q71.205 11.1375 70.905 10.9275Q70.605 10.7175 70.2 10.4775Q69.795 10.2375 69.24 10.0275Q68.685 9.8175 67.95 9.675Q67.215 9.5325 66.255 9.5325Q64.53 9.5325 63.0975 10.125Q61.665 10.7175 60.63 11.8125Q59.595 12.9075 59.0175 14.4825Q58.44 16.0575 58.44 18.0075Q58.44 20.0175 59.0175 21.5925Q59.595 23.1675 60.5925 24.255Q61.59 25.3425 62.955 25.9125Q64.32 26.4825 65.895 26.4825Q66.855 26.4825 67.62 26.37Q68.385 26.2575 69.0375 26.0175Q69.69 25.7775 70.2525 25.41Q70.815 25.0425 71.385 24.5325Q71.64 24.3075 71.88 24.3075ZM97.39 26.3025L88.09 26.3025L88.09 7.2525L85.18 7.2525L85.18 28.7475L97.39 28.7475L97.39 26.3025ZM116.855 26.4375Q118.19 26.4375 119.24 25.9875Q120.29 25.5375 121.018 24.7275Q121.745 23.9175 122.128 22.7925Q122.51 21.6675 122.51 20.3175L122.51 7.2525L125.405 7.2525L125.405 20.3175Q125.405 22.1775 124.812 23.7675Q124.22 25.3575 123.118 26.52Q122.015 27.6825 120.425 28.3425Q118.835 29.0025 116.855 29.0025Q114.875 29.0025 113.285 28.3425Q111.695 27.6825 110.585 26.52Q109.475 25.3575 108.882 23.7675Q108.29 22.1775 108.29 20.3175L108.29 7.2525L111.185 7.2525L111.185 20.3025Q111.185 21.6525 111.567 22.7775Q111.95 23.9025 112.677 24.7125Q113.405 25.5225 114.463 25.98Q115.52 26.4375 116.855 26.4375ZM138.3 7.2525L138.3 28.7475L145.905 28.7475Q147.705 28.7475 149.107 28.305Q150.51 27.8625 151.478 27.0525Q152.445 26.2425 152.948 25.1175Q153.45 23.9925 153.45 22.6275Q153.45 20.6175 152.25 19.3875Q151.05 18.1575 148.695 17.6925Q149.715 17.3775 150.473 16.8825Q151.23 16.3875 151.732 15.7575Q152.235 15.1275 152.482 14.3925Q152.73 13.6575 152.73 12.8625Q152.73 11.5575 152.288 10.515Q151.845 9.4725 150.923 8.7525Q150 8.0325 148.568 7.6425Q147.135 7.2525 145.155 7.2525L138.3 7.2525ZM145.05 16.8825L141.21 16.8825L141.21 9.5475L145.155 9.5475Q147.555 9.5475 148.695 10.4325Q149.835 11.3175 149.835 13.2075Q149.835 14.0175 149.55 14.7Q149.265 15.3825 148.673 15.8625Q148.08 16.3425 147.18 16.6125Q146.28 16.8825 145.05 16.8825ZM141.21 26.4375L141.21 18.9525L145.845 18.9525Q148.23 18.9525 149.408 19.92Q150.585 20.8875 150.585 22.5525Q150.585 23.4075 150.315 24.12Q150.045 24.8325 149.467 25.35Q148.89 25.8675 147.997 26.1525Q147.105 26.4375 145.86 26.4375L141.21 26.4375ZM41.18 27.0975Q41.18 26.7075 41.3225 26.3625Q41.465 26.0175 41.7125 25.7625Q41.96 25.5075 42.305 25.3575Q42.65 25.2075 43.04 25.2075Q43.43 25.2075 43.775 25.3575Q44.12 25.5075 44.375 25.7625Q44.63 26.0175 44.7725 26.3625Q44.915 26.7075 44.915 27.0975Q44.915 27.5025 44.7725 27.84Q44.63 28.1775 44.375 28.4325Q44.12 28.6875 43.775 28.83Q43.43 28.9725 43.04 28.9725Q42.65 28.9725 42.305 28.83Q41.96 28.6875 41.7125 28.4325Q41.465 28.1775 41.3225 27.84Q41.18 27.5025 41.18 27.0975Z" />
    </g>
  </g>
</svg>