<?xml version="1.0" encoding="utf-8"?>
<svg width="234px" height="107.49994px" viewBox="0 0 234 107.49994" version="1.1" xmlns:xlink="http://www.w3.org/1999/xlink" xmlns="http://www.w3.org/2000/svg">
  <defs>
    <linearGradient gradientUnits="userSpaceOnUse" x1="0" y1="0" x2="234" y2="75.5" id="gradient_1">
      <stop offset="0%" stop-color="#09016E" />
      <stop offset="100%" stop-color="#9C022D" />
    </linearGradient>
    <path d="M72.6836 5.74219L73.2695 5.74219Q73.2695 6.52344 75.0273 7.8125L75.0273 8.39844L75.3398 8.39844Q76.3164 8.39844 77.4102 7.53906Q77.9961 7.61719 77.9961 8.125Q77.4102 10.5469 77.4102 11.3672L77.7227 11.3672Q77.7227 15.3906 67.0586 32.1094L67.0586 32.4219Q74.3242 27.9688 76.5117 27.9688Q77.0977 28.2812 77.4102 28.2812L77.4102 28.8672L76.8242 28.8672L77.0977 29.4531Q76.3164 31.5234 75.9258 31.5234Q76.2383 32.6953 77.7227 32.6953L77.7227 33.5938Q76.4727 34.8047 76.2383 35.9766Q70.3008 41.0547 65.8477 42.7734Q67.8531 46.1789 71.8379 63.5861Q75.4397 60.3718 83.4258 52.2656L88.1914 48.9062L88.1914 48.3594L87.6055 48.6328L85.9648 48.6328Q80.8086 49.7656 75.0664 50.5859Q71.5898 50.5859 70.6133 46.4062Q70.6133 45.6641 70.0664 44.7266Q70.7695 42.2266 78.1523 38.0469Q95.7305 22.4219 98.7773 21.6016L99.0508 22.1484Q98.6602 22.1484 97.6445 23.5547Q98.1914 23.6328 98.1914 24.1016Q97.9961 24.1016 96.5508 25.7812L96.8242 26.3281L96.8242 26.6016L95.1445 28.5547L95.9648 29.1406Q97.4102 28.2812 98.7773 28.2812L98.7773 28.5547Q98.7773 29.2969 95.1445 32.4609L95.418 33.0078Q89.832 38.75 88.4648 40.5469Q89.2852 40.5469 89.2852 40.8203Q92.4102 40 95.418 40L97.4988 40Q102.369 26.2891 114.754 26.2891Q121.863 26.2891 124.129 31.5234Q124.754 30.0391 124.91 28.7109Q127.527 24.1406 129.246 23.4375Q129.246 23.75 129.559 23.75L129.246 24.375Q129.949 25.2344 130.496 27.7734L130.809 27.7734Q131.824 27.1484 132.645 27.1484L132.645 28.3984L132.371 29.9609L132.957 30.2734Q133.113 32.6953 126.941 40.5469Q112.605 67.7734 112.098 68.1641L111.785 68.1641Q111.785 66.3672 110.848 65.3906L110.848 64.4531L111.473 63.5156Q110.926 62.6562 108.348 64.1406Q109.012 63.0859 110.105 60.8594Q101.435 59.896 97.1316 50.0995Q94.0614 52.8786 89.0117 56.1719Q84.2461 59.2578 64.4805 78.4375Q57.8008 83.4766 55.8477 84.0234L55.5742 83.4766Q64.207 77.8906 64.207 73.9844Q67.4883 71.2891 68.1133 68.3984Q68.9727 67.9297 70.0664 65.0781Q70.4689 64.7709 71.008 64.3114Q70.2296 61.1719 67.6445 61.1719Q67.6445 59.6875 64.3633 57.8906Q63.582 53.2031 59.0508 46.0547L58.7383 46.0547Q43.0352 75 41.2773 76.5625L40.9648 76.5625L40.9648 76.25Q40.9648 75.7422 41.5508 73.0078Q40.9648 71.1328 40.9648 70.625L41.8633 68.8672Q41.8633 68.5547 41.5508 67.9688Q41.5508 62.9297 44.207 60.2734Q53.582 37.5391 61.707 25.3125Q62.6445 22.8516 72.6836 5.74219ZM146.941 14.8828Q146.629 14.8828 146.629 14.6094L145.223 15.4688Q139.559 25.1562 139.559 27.1094Q135.301 34.2578 135.301 35.3125Q131.121 46.6797 119.676 68.2422Q120.027 71.9531 120.809 71.9531L119.949 73.6328L120.262 74.2188Q120.848 74.2188 121.941 73.3594L122.215 73.3594L122.215 73.9453Q123.582 72.6172 131.316 57.7734Q137.332 49.7266 144.363 34.7656L147.488 34.7656Q148.973 34.4922 149.207 34.4922Q150.691 34.7656 150.887 34.7656L153.465 34.4922Q154.062 34.3336 154.618 34.1879Q151.893 38.4335 150.418 44.9609Q150.418 46.1719 150.691 48.1641Q154.949 59.8047 164.441 60.8594Q163.348 63.0859 162.684 64.1406Q165.262 62.6562 165.809 63.5156L165.184 64.4531L165.184 65.3906Q166.121 66.3672 166.121 68.1641L166.434 68.1641Q166.941 67.7734 181.277 40.5469Q187.449 32.6953 187.293 30.2734L186.707 29.9609L186.98 28.3984L186.98 27.1484Q186.16 27.1484 185.145 27.7734L184.832 27.7734Q184.285 25.2344 183.582 24.375L183.895 23.75Q183.582 23.75 183.582 23.4375Q181.863 24.1406 179.246 28.7109Q179.09 30.0391 178.465 31.5234Q176.199 26.2891 169.09 26.2891Q167.22 26.2891 165.522 26.6015Q165.328 26.5597 165.105 26.5234Q164.793 26.5234 164.246 26.7969L164.246 26.5234L162.84 26.7969L162.254 26.5234L161.668 26.7969Q159.715 26.7969 159.402 26.5234Q157.488 26.7969 156.277 26.7969L152.605 26.7969Q151.16 26.7969 148.348 26.5234Q148.348 24.2578 151.746 24.2578Q153.23 24.5312 153.465 24.5312L156.004 24.2578Q163.504 22.2656 164.793 22.2656Q166.59 20 167.098 20Q167.605 17.4609 169.363 17.4609L169.363 17.1484Q169.363 16.6016 167.645 16.3281Q167.332 16.3281 166.785 16.6016L166.785 16.3281L165.379 16.6016L164.793 16.3281L164.246 16.6016Q162.254 16.6016 161.98 16.3281Q160.027 16.6016 158.855 16.6016L157.996 16.6016Q154.441 16.6016 149.207 16.3281L147.488 17.1484L146.941 17.1484Q146.941 16.2891 146.629 15.1953Q146.941 15.1953 146.941 14.8828ZM198.27 26.4453L197.723 26.1719L197.215 26.4453Q194.676 32.1875 191.629 38.125L191.902 38.6328Q190.457 40 188.738 44.4531L188.973 45Q187.488 46.2891 186.59 48.9844Q185.379 56.25 184.48 56.9531Q185.496 58.7891 185.809 58.7891Q185.809 59.0625 185.535 59.6094Q185.535 59.7266 186.863 61.1719L186.863 61.9922L186.59 62.5L187.137 62.7734Q188.27 61.7188 195.887 47.1094Q195.887 46.2109 200.379 37.5781L200.145 37.0312Q200.691 36.7969 203.035 36.5234Q204.441 36.7969 204.637 36.7969L207.02 36.5234Q214.051 34.6484 215.262 34.6484Q216.902 32.5391 217.371 32.5391Q217.879 30.1562 219.48 30.1562L219.48 29.8828Q219.48 29.3359 217.918 29.1016Q217.605 29.1016 217.098 29.3359L217.098 29.1016L215.77 29.3359L215.262 29.1016L214.715 29.3359Q212.879 29.3359 212.605 29.1016Q210.77 29.3359 209.676 29.3359L208.895 29.3359Q205.535 29.3359 200.652 29.1016Q200.184 29.3359 199.598 29.3359Q199.598 29.0234 197.996 26.9531L198.27 26.4453ZM29.0117 27.2656Q34.0508 27.5391 37.4492 27.5391L38.2695 27.5391Q39.4023 27.5391 41.2383 27.2656Q41.5117 27.5391 43.4258 27.5391L43.9727 27.2656L44.5195 27.5391L45.8477 27.2656L45.8477 27.5391Q46.3945 27.2656 46.668 27.2656Q48.3086 27.5391 48.3086 28.0859L48.3086 28.3594Q46.6289 28.3594 46.1211 30.7812Q45.6523 30.7812 43.9727 32.9688Q42.7227 32.9688 35.5352 34.8828L33.1133 35.1562Q32.8789 35.1562 31.4727 34.8828Q31.2773 34.8828 29.832 35.1562Q25.2227 34.8828 25.2227 33.5156Q25.5352 33.5156 26.5898 31.3281L26.5898 30.7812L26.043 30L26.043 29.4531Q27.1367 28.7109 27.1367 28.0859Q27.3711 28.0859 29.0117 27.2656ZM123.621 32.5391Q122.801 32.1094 121.434 31.25L120.848 31.5234L120.262 31.5234L119.129 30.6641L118.816 30.6641L118.816 31.8359L119.402 32.6953L119.402 33.0078L119.129 33.5938L117.059 33.2812L116.785 33.2812L110.066 35.625Q105.301 39.9609 104.246 45.5469Q104.246 49.9609 110.066 53.125Q111.473 53.8672 113.309 53.9844Q116.199 47.4609 120.457 37.1484Q122.488 34.6875 123.621 32.5391ZM177.957 32.5391Q177.137 32.1094 175.77 31.25L175.184 31.5234L174.598 31.5234L173.465 30.6641L173.152 30.6641L173.152 31.8359L173.738 32.6953L173.738 33.0078L173.465 33.5938L171.395 33.2812L171.121 33.2812L164.402 35.625Q159.637 39.9609 158.582 45.5469Q158.582 49.9609 164.402 53.125Q165.809 53.8672 167.645 53.9844Q170.535 47.4609 174.793 37.1484Q176.824 34.6875 177.957 32.5391ZM24.4023 37.3047L24.9492 37.5781Q25.2227 37.5781 25.2227 37.3047L27.1367 37.5781L34.7148 37.5781Q37.0586 37.5781 42.0586 37.8516L42.332 38.3984Q41.9023 38.3984 37.7227 43.2812L36.6289 43.0078Q30.3789 45.1953 27.1367 45.1953Q26.8242 45.1953 26.3164 44.9219Q24.832 45.1953 23.8555 45.1953L21.707 45.1953Q21.2773 45.1953 20.6133 44.1016Q21.4336 41.6016 21.4336 41.1328Q20.8086 41.1328 20.6133 39.7656Q22.6836 37.3047 24.4023 37.3047ZM39.6367 47.8906Q45.8477 47.8906 45.8477 48.9844L45.8477 49.2578L44.793 49.2578Q43.2695 49.2578 42.0586 51.4453Q40.9258 51.4453 39.6367 53.5938Q38.1133 53.3594 37.4492 53.3594Q27.6836 56.0547 23.582 56.0547L22.4883 56.0547L21.1602 55.7812Q21.1602 56.3281 20.6133 56.3281L15.7305 56.3281Q13.8164 56.3281 13.8164 54.9609L14.6367 53.5938Q14.3633 53.5938 14.3633 53.3594Q14.8711 53.0859 15.1836 53.0859Q15.1836 52.6953 14.0898 51.1719Q16.5508 49.375 16.5508 48.9844Q19.0898 48.4375 20.6133 48.4375L26.3164 48.4375L27.6836 48.1641L27.6836 48.4375Q27.957 48.4375 27.957 48.1641Q36.3555 47.8906 39.6367 47.8906Z" id="path_1" />
    <clipPath id="mask_1">
      <use xlink:href="#path_1" />
    </clipPath>
  </defs>
  <g id="Group">
    <g id="Rectangle-Mask">
      <g id="EKSAFAR" fill="#000000" fill-opacity="0">
        <path d="M72.6836 5.74219L73.2695 5.74219Q73.2695 6.52344 75.0273 7.8125L75.0273 8.39844L75.3398 8.39844Q76.3164 8.39844 77.4102 7.53906Q77.9961 7.61719 77.9961 8.125Q77.4102 10.5469 77.4102 11.3672L77.7227 11.3672Q77.7227 15.3906 67.0586 32.1094L67.0586 32.4219Q74.3242 27.9688 76.5117 27.9688Q77.0977 28.2812 77.4102 28.2812L77.4102 28.8672L76.8242 28.8672L77.0977 29.4531Q76.3164 31.5234 75.9258 31.5234Q76.2383 32.6953 77.7227 32.6953L77.7227 33.5938Q76.4727 34.8047 76.2383 35.9766Q70.3008 41.0547 65.8477 42.7734Q67.8531 46.1789 71.8379 63.5861Q75.4397 60.3718 83.4258 52.2656L88.1914 48.9062L88.1914 48.3594L87.6055 48.6328L85.9648 48.6328Q80.8086 49.7656 75.0664 50.5859Q71.5898 50.5859 70.6133 46.4062Q70.6133 45.6641 70.0664 44.7266Q70.7695 42.2266 78.1523 38.0469Q95.7305 22.4219 98.7773 21.6016L99.0508 22.1484Q98.6602 22.1484 97.6445 23.5547Q98.1914 23.6328 98.1914 24.1016Q97.9961 24.1016 96.5508 25.7812L96.8242 26.3281L96.8242 26.6016L95.1445 28.5547L95.9648 29.1406Q97.4102 28.2812 98.7773 28.2812L98.7773 28.5547Q98.7773 29.2969 95.1445 32.4609L95.418 33.0078Q89.832 38.75 88.4648 40.5469Q89.2852 40.5469 89.2852 40.8203Q92.4102 40 95.418 40L97.4988 40Q102.369 26.2891 114.754 26.2891Q121.863 26.2891 124.129 31.5234Q124.754 30.0391 124.91 28.7109Q127.527 24.1406 129.246 23.4375Q129.246 23.75 129.559 23.75L129.246 24.375Q129.949 25.2344 130.496 27.7734L130.809 27.7734Q131.824 27.1484 132.645 27.1484L132.645 28.3984L132.371 29.9609L132.957 30.2734Q133.113 32.6953 126.941 40.5469Q112.605 67.7734 112.098 68.1641L111.785 68.1641Q111.785 66.3672 110.848 65.3906L110.848 64.4531L111.473 63.5156Q110.926 62.6562 108.348 64.1406Q109.012 63.0859 110.105 60.8594Q101.435 59.896 97.1316 50.0995Q94.0614 52.8786 89.0117 56.1719Q84.2461 59.2578 64.4805 78.4375Q57.8008 83.4766 55.8477 84.0234L55.5742 83.4766Q64.207 77.8906 64.207 73.9844Q67.4883 71.2891 68.1133 68.3984Q68.9727 67.9297 70.0664 65.0781Q70.4689 64.7709 71.008 64.3114Q70.2296 61.1719 67.6445 61.1719Q67.6445 59.6875 64.3633 57.8906Q63.582 53.2031 59.0508 46.0547L58.7383 46.0547Q43.0352 75 41.2773 76.5625L40.9648 76.5625L40.9648 76.25Q40.9648 75.7422 41.5508 73.0078Q40.9648 71.1328 40.9648 70.625L41.8633 68.8672Q41.8633 68.5547 41.5508 67.9688Q41.5508 62.9297 44.207 60.2734Q53.582 37.5391 61.707 25.3125Q62.6445 22.8516 72.6836 5.74219ZM146.941 14.8828Q146.629 14.8828 146.629 14.6094L145.223 15.4688Q139.559 25.1562 139.559 27.1094Q135.301 34.2578 135.301 35.3125Q131.121 46.6797 119.676 68.2422Q120.027 71.9531 120.809 71.9531L119.949 73.6328L120.262 74.2188Q120.848 74.2188 121.941 73.3594L122.215 73.3594L122.215 73.9453Q123.582 72.6172 131.316 57.7734Q137.332 49.7266 144.363 34.7656L147.488 34.7656Q148.973 34.4922 149.207 34.4922Q150.691 34.7656 150.887 34.7656L153.465 34.4922Q154.062 34.3336 154.618 34.1879Q151.893 38.4335 150.418 44.9609Q150.418 46.1719 150.691 48.1641Q154.949 59.8047 164.441 60.8594Q163.348 63.0859 162.684 64.1406Q165.262 62.6562 165.809 63.5156L165.184 64.4531L165.184 65.3906Q166.121 66.3672 166.121 68.1641L166.434 68.1641Q166.941 67.7734 181.277 40.5469Q187.449 32.6953 187.293 30.2734L186.707 29.9609L186.98 28.3984L186.98 27.1484Q186.16 27.1484 185.145 27.7734L184.832 27.7734Q184.285 25.2344 183.582 24.375L183.895 23.75Q183.582 23.75 183.582 23.4375Q181.863 24.1406 179.246 28.7109Q179.09 30.0391 178.465 31.5234Q176.199 26.2891 169.09 26.2891Q167.22 26.2891 165.522 26.6015Q165.328 26.5597 165.105 26.5234Q164.793 26.5234 164.246 26.7969L164.246 26.5234L162.84 26.7969L162.254 26.5234L161.668 26.7969Q159.715 26.7969 159.402 26.5234Q157.488 26.7969 156.277 26.7969L152.605 26.7969Q151.16 26.7969 148.348 26.5234Q148.348 24.2578 151.746 24.2578Q153.23 24.5312 153.465 24.5312L156.004 24.2578Q163.504 22.2656 164.793 22.2656Q166.59 20 167.098 20Q167.605 17.4609 169.363 17.4609L169.363 17.1484Q169.363 16.6016 167.645 16.3281Q167.332 16.3281 166.785 16.6016L166.785 16.3281L165.379 16.6016L164.793 16.3281L164.246 16.6016Q162.254 16.6016 161.98 16.3281Q160.027 16.6016 158.855 16.6016L157.996 16.6016Q154.441 16.6016 149.207 16.3281L147.488 17.1484L146.941 17.1484Q146.941 16.2891 146.629 15.1953Q146.941 15.1953 146.941 14.8828ZM198.27 26.4453L197.723 26.1719L197.215 26.4453Q194.676 32.1875 191.629 38.125L191.902 38.6328Q190.457 40 188.738 44.4531L188.973 45Q187.488 46.2891 186.59 48.9844Q185.379 56.25 184.48 56.9531Q185.496 58.7891 185.809 58.7891Q185.809 59.0625 185.535 59.6094Q185.535 59.7266 186.863 61.1719L186.863 61.9922L186.59 62.5L187.137 62.7734Q188.27 61.7188 195.887 47.1094Q195.887 46.2109 200.379 37.5781L200.145 37.0312Q200.691 36.7969 203.035 36.5234Q204.441 36.7969 204.637 36.7969L207.02 36.5234Q214.051 34.6484 215.262 34.6484Q216.902 32.5391 217.371 32.5391Q217.879 30.1562 219.48 30.1562L219.48 29.8828Q219.48 29.3359 217.918 29.1016Q217.605 29.1016 217.098 29.3359L217.098 29.1016L215.77 29.3359L215.262 29.1016L214.715 29.3359Q212.879 29.3359 212.605 29.1016Q210.77 29.3359 209.676 29.3359L208.895 29.3359Q205.535 29.3359 200.652 29.1016Q200.184 29.3359 199.598 29.3359Q199.598 29.0234 197.996 26.9531L198.27 26.4453ZM29.0117 27.2656Q34.0508 27.5391 37.4492 27.5391L38.2695 27.5391Q39.4023 27.5391 41.2383 27.2656Q41.5117 27.5391 43.4258 27.5391L43.9727 27.2656L44.5195 27.5391L45.8477 27.2656L45.8477 27.5391Q46.3945 27.2656 46.668 27.2656Q48.3086 27.5391 48.3086 28.0859L48.3086 28.3594Q46.6289 28.3594 46.1211 30.7812Q45.6523 30.7812 43.9727 32.9688Q42.7227 32.9688 35.5352 34.8828L33.1133 35.1562Q32.8789 35.1562 31.4727 34.8828Q31.2773 34.8828 29.832 35.1562Q25.2227 34.8828 25.2227 33.5156Q25.5352 33.5156 26.5898 31.3281L26.5898 30.7812L26.043 30L26.043 29.4531Q27.1367 28.7109 27.1367 28.0859Q27.3711 28.0859 29.0117 27.2656ZM123.621 32.5391Q122.801 32.1094 121.434 31.25L120.848 31.5234L120.262 31.5234L119.129 30.6641L118.816 30.6641L118.816 31.8359L119.402 32.6953L119.402 33.0078L119.129 33.5938L117.059 33.2812L116.785 33.2812L110.066 35.625Q105.301 39.9609 104.246 45.5469Q104.246 49.9609 110.066 53.125Q111.473 53.8672 113.309 53.9844Q116.199 47.4609 120.457 37.1484Q122.488 34.6875 123.621 32.5391ZM177.957 32.5391Q177.137 32.1094 175.77 31.25L175.184 31.5234L174.598 31.5234L173.465 30.6641L173.152 30.6641L173.152 31.8359L173.738 32.6953L173.738 33.0078L173.465 33.5938L171.395 33.2812L171.121 33.2812L164.402 35.625Q159.637 39.9609 158.582 45.5469Q158.582 49.9609 164.402 53.125Q165.809 53.8672 167.645 53.9844Q170.535 47.4609 174.793 37.1484Q176.824 34.6875 177.957 32.5391ZM24.4023 37.3047L24.9492 37.5781Q25.2227 37.5781 25.2227 37.3047L27.1367 37.5781L34.7148 37.5781Q37.0586 37.5781 42.0586 37.8516L42.332 38.3984Q41.9023 38.3984 37.7227 43.2812L36.6289 43.0078Q30.3789 45.1953 27.1367 45.1953Q26.8242 45.1953 26.3164 44.9219Q24.832 45.1953 23.8555 45.1953L21.707 45.1953Q21.2773 45.1953 20.6133 44.1016Q21.4336 41.6016 21.4336 41.1328Q20.8086 41.1328 20.6133 39.7656Q22.6836 37.3047 24.4023 37.3047ZM39.6367 47.8906Q45.8477 47.8906 45.8477 48.9844L45.8477 49.2578L44.793 49.2578Q43.2695 49.2578 42.0586 51.4453Q40.9258 51.4453 39.6367 53.5938Q38.1133 53.3594 37.4492 53.3594Q27.6836 56.0547 23.582 56.0547L22.4883 56.0547L21.1602 55.7812Q21.1602 56.3281 20.6133 56.3281L15.7305 56.3281Q13.8164 56.3281 13.8164 54.9609L14.6367 53.5938Q14.3633 53.5938 14.3633 53.3594Q14.8711 53.0859 15.1836 53.0859Q15.1836 52.6953 14.0898 51.1719Q16.5508 49.375 16.5508 48.9844Q19.0898 48.4375 20.6133 48.4375L26.3164 48.4375L27.6836 48.1641L27.6836 48.4375Q27.957 48.4375 27.957 48.1641Q36.3555 47.8906 39.6367 47.8906Z" />
      </g>
      <g clip-path="url(#mask_1)">
        <path d="M0 0L234 0L234 75.5L0 75.5L0 0Z" id="Rectangle" fill="url(#gradient_1)" fill-rule="evenodd" stroke="none" />
      </g>
    </g>
    <g id=".CLUB" fill="#2A2A2A" transform="translate(66 68.49994)">
      <path d="M97.451 13.247Q97.638 13.247 97.774 13.3915L98.675 14.369Q97.927 15.2955 96.8347 15.7885Q95.7425 16.2815 94.2125 16.2815Q92.844 16.2815 91.7517 15.814Q90.6595 15.3465 89.886 14.5135Q89.1125 13.6805 88.7002 12.5245Q88.288 11.3685 88.288 10Q88.288 8.6145 88.747 7.46275Q89.206 6.311 90.039 5.478Q90.872 4.645 92.0322 4.18175Q93.1925 3.7185 94.595 3.7185Q95.9635 3.7185 96.9877 4.15625Q98.012 4.594 98.743 5.3165L97.978 6.379Q97.91 6.481 97.8037 6.5575Q97.6975 6.634 97.5105 6.634Q97.315 6.634 97.111 6.481Q96.907 6.328 96.5925 6.1495Q96.278 5.971 95.7977 5.818Q95.3175 5.665 94.578 5.665Q93.711 5.665 92.9842 5.96675Q92.2575 6.2685 91.7347 6.8295Q91.212 7.3905 90.9187 8.19375Q90.6255 8.997 90.6255 10Q90.6255 11.037 90.9187 11.8445Q91.212 12.652 91.7135 13.2045Q92.215 13.757 92.895 14.0503Q93.575 14.3435 94.357 14.3435Q94.8245 14.3435 95.2027 14.2925Q95.581 14.2415 95.8997 14.131Q96.2185 14.0205 96.5032 13.8463Q96.788 13.672 97.0685 13.417Q97.1535 13.3405 97.247 13.2938Q97.3405 13.247 97.451 13.247ZM115.508 14.2585L110.587 14.2585L110.587 3.8545L108.3 3.8545L108.3 16.1455L115.508 16.1455L115.508 14.2585ZM129.936 14.301Q130.6 14.301 131.122 14.08Q131.645 13.859 132.006 13.4595Q132.367 13.06 132.559 12.4905Q132.75 11.921 132.75 11.2155L132.75 3.8545L135.036 3.8545L135.036 11.2155Q135.036 12.312 134.684 13.2428Q134.331 14.1735 133.668 14.8492Q133.005 15.525 132.061 15.9032Q131.118 16.2815 129.936 16.2815Q128.755 16.2815 127.811 15.9032Q126.868 15.525 126.209 14.8492Q125.55 14.1735 125.198 13.2428Q124.845 12.312 124.845 11.2155L124.845 3.8545L127.132 3.8545L127.132 11.207Q127.132 11.9125 127.323 12.482Q127.514 13.0515 127.871 13.4552Q128.228 13.859 128.751 14.08Q129.273 14.301 129.936 14.301ZM149.507 3.8545L145.266 3.8545L145.266 16.1455L149.907 16.1455Q150.978 16.1455 151.811 15.8735Q152.644 15.6015 153.213 15.1213Q153.783 14.641 154.08 13.978Q154.378 13.315 154.378 12.533Q154.378 10.3655 151.845 9.796Q152.414 9.6005 152.826 9.32Q153.239 9.0395 153.506 8.69525Q153.774 8.351 153.902 7.95575Q154.029 7.5605 154.029 7.127Q154.029 6.3705 153.774 5.767Q153.519 5.1635 152.971 4.7385Q152.423 4.3135 151.568 4.084Q150.714 3.8545 149.507 3.8545ZM149.38 9.1755L147.552 9.1755L147.552 5.6225L149.507 5.6225Q150.663 5.6225 151.207 6.0305Q151.751 6.4385 151.751 7.399Q151.751 8.3255 151.148 8.7505Q150.544 9.1755 149.38 9.1755ZM147.552 14.3605L147.552 10.7565L149.864 10.7565Q150.467 10.7565 150.893 10.8755Q151.318 10.9945 151.59 11.2197Q151.862 11.445 151.989 11.7638Q152.117 12.0825 152.117 12.482Q152.117 12.8645 152.002 13.2045Q151.887 13.5445 151.628 13.7995Q151.368 14.0545 150.939 14.2075Q150.51 14.3605 149.873 14.3605L147.552 14.3605ZM76.6565 14.9895Q76.6565 14.726 76.7542 14.488Q76.852 14.25 77.0262 14.08Q77.2005 13.91 77.4385 13.808Q77.6765 13.706 77.9485 13.706Q78.212 13.706 78.45 13.808Q78.688 13.91 78.858 14.08Q79.028 14.25 79.13 14.488Q79.232 14.726 79.232 14.9895Q79.232 15.2615 79.13 15.4953Q79.028 15.729 78.858 15.899Q78.688 16.069 78.45 16.1667Q78.212 16.2645 77.9485 16.2645Q77.6765 16.2645 77.4385 16.1667Q77.2005 16.069 77.0262 15.899Q76.852 15.729 76.7542 15.4953Q76.6565 15.2615 76.6565 14.9895Z" />
    </g>
  </g>
</svg>