<?xml version="1.0" encoding="utf-8"?>
<svg width="556px" height="595px" viewBox="0 0 556 595" version="1.1" xmlns:xlink="http://www.w3.org/1999/xlink" xmlns="http://www.w3.org/2000/svg">
  <defs>
    <linearGradient gradientUnits="userSpaceOnUse" x1="0" y1="0" x2="160" y2="51" id="gradient_1">
      <stop offset="0%" stop-color="#B40261" />
      <stop offset="100%" stop-color="#0116B4" />
    </linearGradient>
    <path d="M32.088 9.204Q33.96 9.204 36.144 9.564Q38.328 9.924 38.712 9.972L38.616 13.572Q34.392 12.804 32.088 12.804Q28.824 12.804 27.384 14.148Q25.944 15.492 25.944 18.612L25.944 32.34Q25.944 35.46 27.36 36.78Q28.776 38.1 32.088 38.1Q34.392 38.1 38.616 37.332L38.712 41.028Q38.328 41.076 36.144 41.436Q33.96 41.796 32.088 41.796Q26.568 41.796 24.216 39.444Q21.864 37.092 21.864 32.1L21.864 18.9Q21.864 13.908 24.216 11.556Q26.568 9.204 32.088 9.204ZM133.728 11.268Q131.088 9.204 126.048 9.204Q122.016 9.204 117.6 9.396L117.6 41.508Q123.168 41.796 126.384 41.796Q132.048 41.796 134.856 39.444Q137.664 37.092 137.664 33.108L137.664 32.052Q137.664 29.268 136.152 27.372Q134.64 25.476 131.952 24.9Q136.368 22.98 136.368 17.94L136.368 16.884Q136.368 13.332 133.728 11.268ZM56.832 37.62L56.832 9.78L52.752 9.78L52.752 41.22L69.312 41.22L69.312 37.62L56.832 37.62ZM102.6 31.284Q102.6 36.372 100.008 39.084Q97.416 41.796 92.376 41.796Q87.384 41.796 84.768 39.156Q82.152 36.516 82.152 31.38L82.152 9.78L86.232 9.78L86.232 31.908Q86.232 34.98 87.84 36.588Q89.448 38.196 92.376 38.196Q95.352 38.196 96.936 36.588Q98.52 34.98 98.52 31.908L98.52 9.78L102.6 9.78L102.6 31.284ZM121.68 12.852Q123.696 12.708 125.424 12.708Q129.024 12.708 130.656 13.908Q132.288 15.108 132.288 17.508L132.288 18.324Q132.288 20.82 130.776 22.212Q129.264 23.604 126.384 23.604L121.68 23.604L121.68 12.852ZM121.68 37.956L121.68 26.916L126.672 26.916Q133.584 26.916 133.584 31.86L133.584 32.868Q133.584 35.412 131.832 36.828Q130.08 38.244 126.384 38.244Q125.328 38.244 124.296 38.172Q123.264 38.1 121.68 37.956ZM5.328 35.94Q8.064 35.94 8.064 38.196L8.064 39.588Q8.064 40.644 7.368 41.22Q6.672 41.796 5.328 41.796Q4.032 41.796 3.336 41.22Q2.64 40.644 2.64 39.588L2.64 38.196Q2.64 37.092 3.336 36.516Q4.032 35.94 5.328 35.94Z" id="path_1" />
    <clipPath id="mask_1">
      <use xlink:href="#path_1" />
    </clipPath>
  </defs>
  <g id="Group">
    <g id="Rectangle-Mask" transform="translate(368 443)">
      <g id=".CLUB" fill="#9207AA" fill-opacity="0">
        <path d="M32.088 9.204Q33.96 9.204 36.144 9.564Q38.328 9.924 38.712 9.972L38.616 13.572Q34.392 12.804 32.088 12.804Q28.824 12.804 27.384 14.148Q25.944 15.492 25.944 18.612L25.944 32.34Q25.944 35.46 27.36 36.78Q28.776 38.1 32.088 38.1Q34.392 38.1 38.616 37.332L38.712 41.028Q38.328 41.076 36.144 41.436Q33.96 41.796 32.088 41.796Q26.568 41.796 24.216 39.444Q21.864 37.092 21.864 32.1L21.864 18.9Q21.864 13.908 24.216 11.556Q26.568 9.204 32.088 9.204ZM133.728 11.268Q131.088 9.204 126.048 9.204Q122.016 9.204 117.6 9.396L117.6 41.508Q123.168 41.796 126.384 41.796Q132.048 41.796 134.856 39.444Q137.664 37.092 137.664 33.108L137.664 32.052Q137.664 29.268 136.152 27.372Q134.64 25.476 131.952 24.9Q136.368 22.98 136.368 17.94L136.368 16.884Q136.368 13.332 133.728 11.268ZM56.832 37.62L56.832 9.78L52.752 9.78L52.752 41.22L69.312 41.22L69.312 37.62L56.832 37.62ZM102.6 31.284Q102.6 36.372 100.008 39.084Q97.416 41.796 92.376 41.796Q87.384 41.796 84.768 39.156Q82.152 36.516 82.152 31.38L82.152 9.78L86.232 9.78L86.232 31.908Q86.232 34.98 87.84 36.588Q89.448 38.196 92.376 38.196Q95.352 38.196 96.936 36.588Q98.52 34.98 98.52 31.908L98.52 9.78L102.6 9.78L102.6 31.284ZM121.68 12.852Q123.696 12.708 125.424 12.708Q129.024 12.708 130.656 13.908Q132.288 15.108 132.288 17.508L132.288 18.324Q132.288 20.82 130.776 22.212Q129.264 23.604 126.384 23.604L121.68 23.604L121.68 12.852ZM121.68 37.956L121.68 26.916L126.672 26.916Q133.584 26.916 133.584 31.86L133.584 32.868Q133.584 35.412 131.832 36.828Q130.08 38.244 126.384 38.244Q125.328 38.244 124.296 38.172Q123.264 38.1 121.68 37.956ZM5.328 35.94Q8.064 35.94 8.064 38.196L8.064 39.588Q8.064 40.644 7.368 41.22Q6.672 41.796 5.328 41.796Q4.032 41.796 3.336 41.22Q2.64 40.644 2.64 39.588L2.64 38.196Q2.64 37.092 3.336 36.516Q4.032 35.94 5.328 35.94Z" />
      </g>
      <g clip-path="url(#mask_1)">
        <path d="M0 0L160 0L160 51L0 51L0 0Z" id="Rectangle" fill="url(#gradient_1)" fill-rule="evenodd" stroke="none" />
      </g>
    </g>
    <g id="eksafar">
      <path d="M317.723 608.193Q320.36 608.896 322.763 608.896Q332.606 608.896 337.997 597.529Q341.395 590.205 342.86 576.377Q344.442 561.787 344.442 529.736Q344.442 512.979 343.71 497.275Q342.977 481.572 340.634 455.146L338.466 429.834L344.911 398.662L354.579 398.076Q363.778 397.549 367.704 396.26L371.044 394.912L367.704 395.322Q363.192 395.732 354.989 395.732Q346.2 395.732 345.497 395.322L345.497 395.264Q345.497 394.795 348.778 394.795Q367.645 394.092 380.946 386.123Q384.989 383.545 384.989 383.193Q384.989 383.135 384.93 383.135Q384.696 383.135 383.348 383.838Q382.001 384.541 381.649 384.541Q381.532 384.541 381.532 384.424Q381.532 383.486 386.923 379.561Q390.438 376.924 393.661 374.17Q400.634 368.311 400.634 367.197L400.575 366.963Q400.575 366.26 402.04 364.678Q403.505 363.096 403.505 362.861Q403.505 362.803 403.446 362.803Q402.802 362.803 398.348 366.729Q393.544 370.947 388.475 374.609Q383.407 378.271 379.716 380.146Q375.673 382.08 375.263 382.08L375.204 382.08Q375.204 381.846 379.071 379.502Q392.782 371.65 406.2 355.186Q410.77 349.678 410.77 349.209Q410.77 349.15 410.712 349.15Q410.184 349.15 402.596 356.768Q395.009 364.385 390.761 368.047Q386.513 371.709 382.88 373.76Q380.36 375.225 380.067 375.225Q380.067 374.932 385.634 370.889Q390.907 367.021 390.907 366.494Q390.907 366.436 390.848 366.436Q390.38 366.436 388.563 367.842Q385.634 370.068 382.235 372.236Q378.778 374.58 378.778 375.576L378.778 375.693L378.954 376.045Q378.954 376.162 378.837 376.162Q378.72 376.162 378.456 375.986Q378.192 375.811 377.899 375.811Q376.434 375.811 373.388 377.041Q368.7 379.033 364.598 379.854Q361.024 380.557 356.805 380.557Q349.716 380.557 348.954 380.205L348.954 380.029Q348.954 378.564 351.239 368.076Q353.7 356.768 355.048 352.666Q356.278 349.033 359.296 335.176Q362.313 321.318 368.846 297.412Q375.38 273.506 383.231 247.432Q384.227 244.033 384.227 242.803Q384.227 242.158 383.993 242.158Q383.466 242.158 383.466 241.455Q383.466 241.162 383.641 240.752Q384.169 239.17 385.927 230.381Q387.743 221.357 388.124 220.273Q388.505 219.189 388.505 217.725L388.446 216.846Q388.388 215.908 388.358 215.088Q388.329 214.268 388.27 213.857Q388.329 213.096 389.208 209.58Q391.141 201.553 393.075 195.342Q395.946 186.553 399.638 178.643Q402.274 173.076 402.274 172.197L402.216 172.139Q401.981 172.139 400.399 175.186Q396.649 182.51 393.075 190.889Q390.907 196.279 390.263 196.279L390.263 196.221Q390.263 194.932 394.511 184.824Q398.759 174.717 398.759 173.896Q398.759 173.779 398.7 173.779Q398.524 173.779 397.352 176.006Q396.591 177.588 395.946 177.588Q395.595 177.588 395.595 177.236Q395.595 175.596 398.466 169.678Q401.044 164.229 401.044 163.35L401.044 163.291Q400.516 163.291 397.587 168.799Q395.126 173.779 394.657 173.779Q394.54 173.779 394.54 173.604Q394.54 173.252 395.126 172.08Q395.712 170.908 395.712 170.205Q395.712 169.912 395.595 169.795Q395.126 169.795 391.815 176.533Q388.505 183.271 384.11 193.174Q372.684 219.893 358.593 267.793Q344.755 314.831 334.731 360.71Q333.921 362.199 332.775 364.678Q329.318 372.061 328.849 372.061Q328.673 372.061 328.673 371.885Q328.673 371.357 329.142 370.596Q330.08 368.545 333.009 359.873Q335.998 351.025 335.998 349.971Q335.998 349.678 335.822 349.678Q335.646 349.678 335.06 350.498Q333.654 352.49 331.369 358.115Q330.548 360.342 329.494 362.51Q327.326 366.904 326.857 366.904Q326.74 366.904 326.74 366.729Q326.74 366.201 328.029 363.506Q329.084 361.514 329.084 360.752L329.025 360.576Q328.556 360.576 325.509 367.197Q322.404 374.17 319.591 378.447Q316.779 382.725 315.08 386.416Q313.205 390.459 309.806 395.557Q306.408 400.654 303.361 404.287Q300.49 407.744 299.552 407.744L299.435 407.744Q298.966 407.1 298.966 403.35Q298.966 392.1 303.127 352.959Q303.83 346.689 303.83 342.471Q303.83 338.018 303.068 335.791Q301.603 331.572 296.271 331.572L295.275 331.572Q291.877 331.572 290.177 333.447Q289.298 334.443 286.867 339.395Q284.435 344.346 281.623 350.967Q274.884 366.963 272.072 372.471Q267.443 381.846 265.216 381.846Q264.279 381.846 264.279 379.443Q264.279 377.92 265.978 372.881Q269.845 361.279 274.533 351.494Q278.693 343.174 278.957 341.299Q279.22 339.424 279.865 337.197Q281.505 331.572 282.267 331.572Q282.677 331.572 282.677 330.986Q282.677 330.693 282.502 330.225L282.443 329.756Q282.443 328.877 283.38 327.383Q284.318 325.889 286.017 324.336Q287.716 322.783 289.328 322.227Q290.939 321.67 292.463 321.67Q295.744 321.67 299.259 324.189Q300.841 325.361 301.076 325.361L301.134 325.303Q301.134 325.127 300.607 324.541Q297.384 320.791 291.115 320.557Q288.361 320.498 288.361 320.205Q288.361 320.029 289.328 319.619Q290.295 319.209 291.525 319.209Q295.861 319.209 301.017 322.432L303.537 324.131L301.603 322.432Q299.787 320.908 299.787 320.264Q299.787 319.736 300.841 319.736Q301.838 319.736 304.767 322.666Q307.287 325.186 307.873 325.186Q308.048 325.186 308.048 325.01Q308.048 324.365 305.588 321.67Q303.83 319.736 303.83 319.561L303.888 319.502L304.181 319.678Q305.295 320.439 305.822 320.439Q306.173 320.439 306.173 320.146Q306.173 318.975 301.252 316.221Q295.92 313.232 290.646 313.232Q283.615 313.232 277.638 318.154Q265.685 328.057 256.017 348.857Q248.341 365.322 244.884 381.26Q243.068 389.639 243.068 395.967Q243.068 401.65 244.533 405.635Q248.4 414.6 256.662 414.6Q260.763 414.6 265.392 411.846Q268.263 409.971 272.277 405.752Q276.291 401.533 278.224 398.428Q279.865 395.674 280.275 395.674Q280.509 395.791 280.509 399.424L280.392 406.045Q280.392 411.611 281.271 417.061Q282.15 422.51 284.025 425.381Q285.666 427.9 288.713 430.068Q291.701 431.943 295.334 431.943Q299.201 431.943 303.771 429.775Q310.558 426.331 319.621 414.001Q319.566 416.134 319.54 418.467Q319.364 429.658 318.749 436.455Q318.134 443.252 316.259 453.916Q304.013 524.814 304.013 560.732L304.013 565.596Q304.013 588.799 307.47 596.943Q308.993 600.928 311.893 604.092Q314.794 607.256 317.723 608.193ZM82.9172 430.303Q82.6242 430.303 82.6242 428.545Q82.6242 427.021 82.8293 423.682Q83.0344 420.342 83.0344 418.936Q83.0344 417.939 82.9172 417.939Q82.7414 417.939 82.3313 419.521Q80.9836 424.854 80.5734 424.854Q80.2805 424.854 79.8703 424.15Q79.05 422.803 79.05 419.697Q79.05 416.592 77.7902 415.186Q76.5305 413.779 76.5305 409.326Q76.5305 405.576 76.1203 405.195Q75.7102 404.814 75.593 404.814Q75.0656 404.814 74.4797 407.451Q74.0695 409.502 73.4836 409.502Q72.8391 409.502 72.8391 407.217Q72.8391 403.584 73.3664 398.135Q74.3625 387.764 75.1828 386.299Q76.1789 384.541 83.6789 349.092Q88.8938 324.6 92.1164 310.449Q95.3391 296.299 100.144 277.373Q109.226 240.869 114.265 222.822Q116.784 213.916 120.124 203.076Q123.113 193.291 124.753 192.236Q125.573 191.709 125.866 191.709Q126.218 191.709 126.218 192.471Q126.218 192.881 126.101 193.584L126.042 194.287Q126.042 195.752 126.804 195.752L127.273 195.635Q127.917 195.635 127.917 196.924Q127.917 197.686 127.155 203.545L130.261 195.107Q129.734 204.072 129.734 205.479Q129.734 209.17 130.407 210.137Q131.081 211.104 131.638 213.828Q132.195 216.553 132.312 218.604Q132.429 220.654 132.429 221.533Q132.429 223.35 132.195 224.639Q131.667 227.393 128.62 238.994L123.523 258.271Q118.308 277.959 111.042 310.01Q101.667 350.85 101.667 353.721Q101.667 354.482 101.96 354.482Q102.488 354.482 111.101 347.158Q118.425 340.889 127.155 333.096Q146.257 315.986 154.167 305.205Q157.214 301.045 158.21 301.045Q158.386 301.045 158.503 301.221Q158.855 301.807 159.03 301.807Q159.206 301.807 159.206 301.279Q159.206 300.752 159.47 300.459Q159.734 300.166 160.085 300.166Q160.495 300.166 160.495 300.576Q160.495 300.986 160.027 301.807Q159.558 302.627 159.558 303.096Q159.558 303.682 160.378 303.682L161.14 303.623Q161.726 303.623 161.726 304.326Q161.726 305.557 160.378 307.607Q159.382 309.014 159.382 309.717L159.441 309.951L160.261 309.365Q160.905 308.604 161.726 307.373Q163.484 304.502 163.777 304.502Q163.835 304.502 163.835 304.619Q163.835 305.146 162.605 307.959Q161.609 310.361 161.023 312.646Q160.32 315.225 160.32 316.631Q160.32 317.51 160.671 317.51L160.905 317.451Q161.198 317.217 161.316 317.217Q161.433 317.217 161.433 317.393Q161.433 317.627 161.023 318.389Q160.261 319.795 159.675 321.494Q159.089 323.193 158.913 324.219Q158.738 325.244 158.738 325.713Q158.738 326.182 158.855 326.416Q158.855 327.119 155.105 331.045Q145.437 341.475 137.175 348.389Q109.695 371.65 100.964 380.791Q93.2297 389.229 93.2297 393.037Q93.2297 394.033 93.9328 394.385Q94.4602 394.561 95.7492 394.561Q98.6789 394.561 102.605 393.916Q107.409 393.213 124.753 387.354Q133.601 384.365 137.702 382.725Q151.355 377.217 153.64 377.217Q153.991 377.217 154.109 377.305Q154.226 377.393 154.402 377.393Q155.925 377.393 160.173 375.605Q164.421 373.818 165.534 373.818Q165.652 373.818 165.652 373.877Q165.652 374.463 160.027 377.861Q154.402 381.26 154.402 381.67Q154.87 381.67 155.808 381.436Q156.98 381.025 158.679 380.322Q161.316 379.209 161.902 379.209Q162.546 379.209 162.546 379.912Q162.546 380.381 161.696 381.289Q160.847 382.197 159.616 383.018Q156.628 385.068 156.628 385.771Q156.628 386.182 157.566 386.182Q157.8 386.182 157.8 386.357Q157.8 386.709 156.042 388.232Q153.64 390.225 149.48 392.92Q146.667 394.736 146.667 395.029Q146.667 395.088 146.902 395.088Q147.722 395.088 152.761 393.447Q155.573 392.51 156.159 392.51L156.218 392.51Q156.335 392.51 156.335 392.568Q156.335 392.803 155.456 393.74Q151.941 397.197 140.837 401.533Q129.734 405.869 117.136 409.15Q104.538 412.432 96.5109 412.666L89.1281 412.783Q87.9563 417.119 87.4875 418.115Q87.0188 419.111 86.6379 419.258Q86.257 419.404 85.8762 420.664Q85.4953 421.924 85.2609 423.74Q84.7336 427.725 83.5617 429.658Q83.1516 430.303 82.9172 430.303ZM389.208 212.686Q389.208 213.154 389.559 213.154Q389.794 213.154 390.087 212.979Q390.38 212.803 390.643 212.393Q390.907 211.982 390.907 211.689Q390.907 211.162 390.438 211.162Q390.263 211.162 389.97 211.367Q389.677 211.572 389.442 211.953Q389.208 212.334 389.208 212.686ZM97.8586 300.869Q98.1516 300.869 98.7961 298.174Q99.0305 297.236 99.0305 296.768Q99.0305 296.24 98.7375 296.24Q98.2102 296.24 97.8586 297.354Q97.6242 298.174 97.6242 299.053Q97.6242 300.869 97.8586 300.869ZM7.61719 439.268Q5.50781 439.268 3.69141 438.74Q-5.27344 435.986 -7.38281 429.043Q-9.49219 422.1 -9.49219 415.83Q-9.49219 409.033 -7.91016 400.186Q-4.33594 378.975 5.21484 353.604Q17.6953 320.498 31.9922 306.143Q39.1406 298.701 47.0508 298.701L47.9883 298.701Q56.3672 298.701 61.2891 306.201Q64.5703 311.24 64.5703 317.861Q64.5703 328.643 56.8359 341.24Q50.6836 351.318 40.4297 360.283Q37.8516 362.51 33.5156 365.088Q29.1797 367.666 25.2246 369.541Q21.2695 371.416 19.8047 371.416Q18.3398 371.65 16.1719 378.242Q14.0039 384.834 12.0117 393.799Q8.49609 409.209 8.49609 415.771Q8.49609 418.174 9.02344 418.994Q10.0781 420.166 11.1328 420.166Q12.1289 420.166 15.8203 417.119Q25.0195 409.502 30.0586 403.057Q36.6797 394.385 41.4258 389.229Q43.1836 387.354 46.4062 382.49Q48.8086 378.916 55.1367 369.893L58.8867 364.443Q63.8672 357.178 64.2773 357.178Q64.2773 357.471 63.0469 359.639Q61.4062 362.334 61.4062 362.744L61.4648 362.803Q62.0508 362.803 65.8594 357.061Q70.6641 349.736 71.1328 349.619Q71.6016 349.502 71.6602 349.502Q71.8359 349.502 71.8359 349.736Q71.8359 351.201 65.4492 362.744Q63.9258 365.439 63.5156 365.967Q62.9883 366.787 62.9883 367.139Q62.9883 367.432 63.1641 367.432Q63.3398 367.432 64.3359 366.172Q65.332 364.912 66.6797 362.803Q68.0273 360.693 69.2578 358.994Q70.4883 357.295 70.9277 356.943Q71.3672 356.592 71.6016 356.592Q71.9531 356.592 71.9531 357.236Q71.9531 359.053 69.7852 363.506Q68.4961 365.967 68.4961 367.08Q68.4961 367.666 68.8477 367.812Q69.1992 367.959 69.1992 368.486Q69.1992 370.713 64.043 381.201Q62.6367 384.014 61.9336 385.244Q60.5859 387.588 60.5859 387.998Q60.5859 388.057 60.6445 388.057Q61.1719 388.057 64.5117 383.193Q69.082 376.631 69.9609 376.631Q70.1367 376.631 70.1367 376.982Q70.1367 379.209 63.9844 389.229Q56.6602 400.713 46.377 412.637Q36.0938 424.561 28.1836 430.83Q17.0508 439.268 7.61719 439.268ZM96.2766 305.967Q96.6281 305.85 96.9797 304.385Q97.0969 303.799 97.0969 303.506Q97.0969 303.096 96.8625 303.096Q96.4523 303.096 96.1594 303.799Q95.925 304.326 95.925 304.854Q95.925 305.967 96.218 305.967L96.2766 305.967ZM162.905 414.717Q165.717 419.053 172.045 419.053Q184.35 419.053 210.834 406.162Q221.616 400.889 226.684 397.373Q231.752 393.857 234.067 390.049Q236.381 386.24 236.381 382.959Q236.381 378.33 231.752 374.58Q230.053 373.291 230.053 372.764Q230.053 372.412 230.698 372.031Q231.342 371.65 232.163 370.771Q232.983 369.893 235.092 366.729L231.049 368.955Q227.123 371.24 226.538 371.24Q226.538 370.654 231.518 365.674Q236.03 361.045 236.03 360.459Q236.03 360.4 235.971 360.4L235.385 360.459Q234.916 360.459 234.916 360.166Q234.916 359.99 235.268 359.316Q235.62 358.643 237.875 356.797Q240.131 354.951 241.069 353.369Q241.479 352.666 241.479 352.256Q241.479 351.787 240.834 351.787Q240.248 351.787 234.155 355.654Q231.108 357.588 230.756 357.588Q230.639 357.588 230.639 357.412Q230.639 357.002 237.202 352.197L242.006 348.564Q244.819 346.455 244.819 346.045Q244.819 345.928 244.467 345.928Q242.768 345.928 237.026 349.502Q232.338 352.49 231.166 352.666Q230.991 352.666 230.991 352.549Q230.991 352.139 232.983 350.85Q235.678 349.15 235.678 348.682L235.62 348.623Q235.385 348.623 234.272 349.268Q231.284 350.791 227.241 353.545Q225.073 355.01 220.913 357.178Q219.096 358.174 216.957 359.609Q214.819 361.045 210.366 364.795L205.62 363.271Q200.815 361.748 198.237 360.166Q195.073 358.35 192.436 357.236Q189.565 355.947 187.748 353.809Q185.932 351.67 185.932 349.561Q185.932 347.686 188.159 343.115Q190.385 338.896 190.678 337.49Q190.795 336.846 191.498 334.678Q193.784 327.295 195.834 323.896Q197.299 321.494 199.702 319.033Q202.631 315.928 202.631 315.4Q202.631 315.283 202.573 315.283L202.28 315.4Q200.463 316.455 199.409 317.627Q198.94 318.213 198.12 318.857Q196.655 320.029 196.245 320.029Q196.127 320.029 196.127 319.912Q196.127 319.385 198.588 316.865Q201.166 314.111 201.166 313.525Q201.166 313.467 201.049 313.467L200.873 313.467Q200.288 313.643 199.936 313.643Q199.467 313.643 199.467 313.35Q199.467 312.646 202.983 308.896L200.991 309.014Q197.885 309.424 191.733 314.346Q185.58 319.268 179.575 325.684Q173.569 332.1 170.932 337.08Q167.944 343.408 167.944 349.443Q167.944 356.064 171.577 362.217Q173.92 365.732 178.608 369.57Q183.295 373.408 187.397 375.225Q190.971 376.748 190.971 377.1Q190.971 377.627 187.163 380.498L182.065 384.541Q179.018 386.943 173.745 391.689Q171.284 393.916 169.409 395.322Q167.534 396.729 167.182 396.729L166.948 396.67Q166.713 396.67 166.713 396.846Q166.713 397.021 166.83 397.227Q166.948 397.432 166.948 397.607Q166.948 398.369 166.01 399.131Q164.311 400.654 162.875 403.936Q161.44 407.217 161.44 409.619Q161.44 412.432 162.905 414.717ZM456.246 431.943Q452.613 431.943 449.625 430.068Q446.578 427.9 444.938 425.381Q443.062 422.51 442.184 417.061Q441.305 411.611 441.305 406.045L441.422 399.424Q441.422 395.791 441.188 395.674Q440.777 395.674 439.137 398.428Q437.203 401.533 433.189 405.752Q429.176 409.971 426.305 411.846Q421.676 414.6 417.574 414.6Q409.312 414.6 405.445 405.635Q403.98 401.65 403.98 395.967Q403.98 389.639 405.797 381.26Q409.254 365.322 416.93 348.857Q426.598 328.057 438.551 318.154Q444.527 313.232 451.559 313.232Q456.832 313.232 462.164 316.221Q467.086 318.975 467.086 320.146Q467.086 320.439 466.734 320.439Q466.207 320.439 465.094 319.678L464.801 319.502L464.742 319.561Q464.742 319.736 466.5 321.67Q468.961 324.365 468.961 325.01Q468.961 325.186 468.785 325.186Q468.199 325.186 465.68 322.666Q462.75 319.736 461.754 319.736Q460.699 319.736 460.699 320.264Q460.699 320.908 462.516 322.432L464.449 324.131L461.93 322.432Q456.773 319.209 452.438 319.209Q451.207 319.209 450.24 319.619Q449.273 320.029 449.273 320.205Q449.273 320.498 452.027 320.557Q458.297 320.791 461.52 324.541Q462.047 325.127 462.047 325.303L461.988 325.361Q461.754 325.361 460.172 324.189Q456.656 321.67 453.375 321.67Q451.852 321.67 450.24 322.227Q448.629 322.783 446.93 324.336Q445.23 325.889 444.293 327.383Q443.355 328.877 443.355 329.756L443.414 330.225Q443.59 330.693 443.59 330.986Q443.59 331.572 443.18 331.572Q442.418 331.572 440.777 337.197Q440.133 339.424 439.869 341.299Q439.605 343.174 435.445 351.494Q430.758 361.279 426.891 372.881Q425.191 377.92 425.191 379.443Q425.191 381.846 426.129 381.846Q428.355 381.846 432.984 372.471Q435.797 366.963 442.535 350.967Q445.348 344.346 447.779 339.395Q450.211 334.443 451.09 333.447Q452.789 331.572 456.188 331.572L457.184 331.572Q462.516 331.572 463.98 335.791Q464.742 338.018 464.742 342.471Q464.742 346.689 464.039 352.959Q459.879 392.1 459.879 403.35Q459.879 407.1 460.348 407.744L460.465 407.744Q461.402 407.744 464.273 404.287Q467.32 400.654 470.719 395.557Q474.117 390.459 475.992 386.416Q477.691 382.725 480.504 378.447Q483.316 374.17 486.422 367.197Q489.469 360.576 489.938 360.576L489.996 360.752Q489.996 361.514 488.941 363.506Q487.652 366.201 487.652 366.729Q487.652 366.904 487.77 366.904Q488.238 366.904 490.406 362.51Q491.461 360.342 492.281 358.115Q493.568 354.948 494.576 352.933Q494.982 345.739 495.042 338.311Q495.042 321.787 495.804 321.787L495.862 321.787Q496.097 321.904 496.859 323.018Q497.796 324.424 498.382 324.424Q498.734 324.424 499.027 323.809Q499.32 323.193 499.554 323.193Q499.788 323.252 500.023 324.014Q501.722 329.287 501.956 329.404L502.015 329.404Q502.191 329.404 502.191 328.584Q502.191 327.061 501.487 324.131Q501.136 322.959 501.136 322.139Q501.136 321.787 501.253 321.787Q501.546 321.787 502.073 323.047Q502.601 324.307 502.952 325.83Q504.593 331.631 505.648 331.631Q505.765 331.631 505.941 331.484Q506.116 331.338 506.966 329.668Q507.816 327.998 508.987 325.654Q514.73 313.76 522.054 313.76Q525.745 313.76 529.788 316.689Q532.249 318.271 534.036 320.674Q535.823 323.076 538.753 328.701Q542.327 335.381 545.96 339.688Q549.593 343.994 551.761 344.17Q552.816 344.287 553.577 345.576Q553.987 346.396 554.544 346.514Q555.101 346.631 555.452 346.631Q556.273 346.631 557.62 346.338Q562.132 345.4 563.655 345.4Q564.417 345.4 564.417 345.635Q564.417 346.221 561.839 347.217Q556.917 349.209 553.343 349.443Q552.757 349.502 552.757 349.561Q552.757 349.736 555.54 350.029Q558.323 350.322 559.085 350.615Q559.847 350.908 559.847 351.318Q559.847 351.963 558.206 352.549Q556.976 353.018 555.452 353.252Q552.347 353.662 552.347 354.6Q552.347 354.717 552.435 354.893Q552.523 355.068 552.523 355.244Q552.523 356.006 550.003 356.006Q547.132 356.006 543.558 354.688Q539.984 353.369 537.054 351.26L533.89 348.916Q534.945 350.088 535.941 351.23Q536.937 352.373 538.753 353.838Q540.335 355.186 546.546 359.521Q545.081 359.229 543.704 358.965Q542.327 358.701 540.745 358.086Q539.163 357.471 538.05 356.826Q535.003 354.834 530.96 350.439Q526.917 346.045 525.335 343.027Q523.753 340.01 523.226 340.01Q522.64 340.01 520.999 345.312Q519.359 350.615 517.484 358.584Q516.37 363.506 514.612 376.514Q512.737 389.873 510.57 410.029Q496.038 409.795 492.757 409.443Q490.706 409.092 490.706 408.037Q490.706 407.686 490.823 407.217Q491.073 405.766 491.537 395.948Q490.488 397.963 489.352 400.039Q486.129 405.928 483.434 409.912Q472.535 425.791 464.684 429.775Q460.113 431.943 456.246 431.943ZM491.807 389.887Q491.891 388.062 491.994 386.185Q490.69 389.633 489.762 391.396Q489 392.92 489 393.506Q489 393.682 489.117 393.682L489.293 393.623Q489.703 393.33 490.67 391.807Q491.224 390.934 491.807 389.887ZM493.662 364.732Q493.935 361.975 494.154 359.183Q494.04 359.524 493.922 359.873Q490.992 368.545 490.055 370.596Q489.586 371.357 489.586 371.885Q489.586 372.061 489.762 372.061Q490.229 372.061 493.662 364.732ZM92.0578 321.904Q92.4094 321.904 92.4094 320.908Q92.4094 320.615 92.2629 320.234Q92.1164 319.854 91.9992 319.854Q91.8234 319.854 91.7648 320.732Q91.7648 321.904 92.0578 321.904ZM22.0312 361.982Q22.6172 361.982 24.1406 361.104Q24.1992 361.104 24.1992 361.045Q25.4297 360.459 25.4297 359.58Q25.4297 359.404 25.2832 359.141Q25.1367 358.877 25.1367 358.76Q25.1367 358.643 25.1953 358.643Q25.3125 358.643 25.4883 358.76Q25.6641 358.877 25.957 358.877Q26.7773 358.877 27.5391 358.291Q29.5312 356.65 31.6992 352.9Q32.5781 351.377 32.5781 350.732Q32.5781 349.678 34.6875 345.576Q36.7969 341.475 36.7969 340.537Q36.7969 340.127 37.9102 338.018Q39.0234 335.908 40.7227 333.271Q44.707 326.768 44.707 323.604Q44.707 322.08 43.7109 321.67L43.4766 321.67Q41.9531 321.67 38.8477 325.771Q35.5664 330.283 31.6992 337.637Q27.832 344.99 24.6094 353.311L24.4922 353.604Q21.7383 360.459 21.7383 361.572Q21.7383 361.982 22.0312 361.982ZM89.1867 332.627Q91.0031 328.057 91.2375 327.061Q91.6477 325.654 91.6477 324.307Q91.6477 323.721 91.5305 323.721Q90.7688 323.721 89.1867 332.627ZM515.667 357.295Q514.144 366.963 513.382 366.963Q513.265 366.963 513.265 366.436Q513.265 365.381 513.734 363.506Q514.085 361.982 515.667 357.295ZM4.16016 366.143Q4.57031 366.143 5.85938 362.334Q6.79688 359.756 6.79688 358.76Q6.79688 358.584 6.73828 358.584Q6.32812 358.584 5.12695 361.484Q3.92578 364.385 3.92578 365.264Q3.92578 366.143 4.16016 366.143ZM20.9766 364.795Q21.7969 364.795 24.082 363.623Q27.2461 361.982 27.9492 361.104L27.9492 360.986Q27.9492 360.928 27.832 360.928Q27.0117 360.928 24.6094 362.1Q22.9688 362.861 21.8555 363.623Q20.7422 364.385 20.7422 364.678Q20.7422 364.795 20.9766 364.795ZM20.2734 368.662Q20.3906 368.662 20.7715 368.311Q21.1523 367.959 21.6797 367.344Q22.207 366.729 22.207 366.494Q22.207 366.143 21.2695 366.143Q20.7422 366.143 20.332 366.523Q19.9219 366.904 19.9219 367.432Q19.9219 368.662 20.2734 368.662ZM512.972 370.918Q512.855 371.064 512.737 371.064Q512.445 371.064 512.445 369.893Q512.503 368.955 512.679 368.955Q512.796 368.955 512.943 369.336Q513.089 369.717 513.089 370.068L513.089 370.479Q513.089 370.771 512.972 370.918ZM213.178 388.467Q212.534 388.701 212.299 388.701Q212.182 388.701 212.182 388.643Q212.182 388.467 212.739 387.881Q213.295 387.295 213.94 387.295Q214.291 387.295 214.291 387.588Q214.291 387.705 214.057 387.969Q213.823 388.232 213.178 388.467ZM207.553 391.221Q206.967 391.455 206.616 391.455Q206.323 391.455 206.323 391.338Q206.323 391.162 206.938 390.723Q207.553 390.283 208.168 390.049Q208.784 389.814 209.135 389.814Q209.428 389.814 209.428 389.932Q209.428 390.107 208.784 390.547Q208.139 390.986 207.553 391.221ZM-4.62891 394.443Q-4.39453 394.443 -3.98438 393.506Q-3.39844 392.041 -3.39844 390.811Q-3.39844 390.225 -3.57422 390.166Q-3.86719 390.166 -4.27734 391.104Q-4.86328 392.568 -4.86328 393.799Q-4.86328 394.385 -4.62891 394.443ZM-6.85547 406.045Q-6.73828 406.045 -5.50781 400.654Q-4.80469 397.666 -4.74609 397.021Q-4.74609 396.846 -4.86328 396.846Q-4.98047 396.846 -5.30273 397.402Q-5.625 397.959 -5.97656 399.512Q-6.32812 401.064 -6.5625 402.881Q-6.85547 405.283 -6.85547 405.869L-6.85547 406.045ZM86.9602 422.334Q86.7258 422.275 86.7258 421.572Q86.7258 420.225 86.9016 420.225Q87.0188 420.225 87.1945 420.664Q87.3703 421.104 87.3703 421.572Q87.3703 422.334 86.9602 422.334ZM314.794 483.066Q314.559 483.447 314.442 483.447Q314.091 483.447 314.091 482.158Q314.091 481.631 314.354 481.25Q314.618 480.869 314.911 480.869Q315.38 480.869 315.38 481.455Q315.38 481.748 315.204 482.217Q315.028 482.686 314.794 483.066ZM312.304 502.197Q311.805 504.541 311.571 504.541Q311.102 504.541 311.102 503.604L311.161 503.018Q311.337 502.314 311.688 499.941Q312.04 497.568 312.479 494.58Q312.919 491.592 313.3 489.775Q313.68 487.959 313.856 487.959Q313.973 488.076 313.973 488.721Q313.973 489.365 313.827 491.182Q313.68 492.998 313.241 496.426Q312.802 499.854 312.304 502.197ZM310.634 515.439Q310.634 516.201 310.223 516.201Q309.93 516.201 309.93 514.971Q309.989 514.092 310.165 514.092Q310.282 514.092 310.458 514.531Q310.634 514.971 310.634 515.439ZM325.106 571.865Q323.993 582.646 323.173 582.646Q322.587 582.646 322.118 576.846Q321.884 573.799 321.884 569.17Q321.884 566.064 322.089 559.385Q322.294 552.705 322.938 542.51Q323.583 532.314 324.403 525.371Q325.223 518.428 325.927 518.428Q326.337 519.072 326.337 530.322Q326.337 559.385 325.106 571.865ZM309.813 520.479Q309.755 521.24 309.403 521.24Q309.11 521.24 309.11 520.068Q309.169 519.131 309.345 519.131Q309.462 519.131 309.638 519.57Q309.813 520.01 309.813 520.479ZM306.415 570.225Q306.415 574.209 306.122 574.209Q305.946 574.209 305.946 569.873Q306.005 565.889 306.122 565.889Q306.415 565.889 306.415 570.225ZM307.059 583.232Q306.884 583.76 306.766 583.76Q306.649 583.76 306.591 583.291Q306.532 582.822 306.386 582.119Q306.239 581.416 305.975 580.654Q305.712 579.893 305.712 579.717Q305.712 579.6 305.77 579.6Q305.888 579.6 306.532 580.625Q307.177 581.65 307.177 582.705Q307.177 582.998 307.059 583.232ZM320.77 607.256L320.77 607.314L320.712 607.314Q320.243 607.314 316.962 605.791Q313.388 604.268 311.161 600.342Q309.345 597.119 307.968 592.754Q306.591 588.389 306.591 585.928Q306.591 585.693 306.708 585.693Q307.059 585.693 308.114 590.146Q309.579 595.889 310.985 598.701Q312.333 601.104 314.911 603.418Q317.489 605.732 318.778 605.732Q319.833 605.732 320.419 606.611Q320.77 607.08 320.77 607.256ZM325.223 606.963Q323.934 607.432 323.407 607.432Q323.348 607.432 323.348 607.373Q323.348 606.963 327.86 605.029Q331.2 603.623 331.727 603.623Q331.845 603.623 331.845 603.682Q331.845 603.975 329.501 605.205Q327.802 606.025 325.223 606.963Z" />
    </g>
  </g>
</svg>