<?xml version="1.0" encoding="utf-8"?>
<svg width="341px" height="341px" viewBox="0 0 341 341" version="1.1" xmlns:xlink="http://www.w3.org/1999/xlink" xmlns="http://www.w3.org/2000/svg">
  <defs>
    <path d="M0 0L341 0L341 341L0 341L0 0Z" id="path_1" />
    <clipPath id="mask_1">
      <use xlink:href="#path_1" />
    </clipPath>
  </defs>
  <g id="Group-2">
    <g id="Document-Icon">
      <path d="M0 0L341 0L341 341L0 341L0 0Z" id="Background" fill="#FFFFFF" fill-opacity="0" fill-rule="evenodd" stroke="none" />
      <g clip-path="url(#mask_1)">
        <path d="M55.4125 319.688L55.4125 21.3125L211.36 21.3125L285.587 95.5397L285.587 319.688L55.4125 319.688Z" id="Shape" fill="#FFFFFF" stroke="none" />
        <path d="M209.596 25.575L281.325 97.3043L281.325 315.425L59.675 315.425L59.675 25.575L209.596 25.575M213.125 17.05L51.15 17.05L51.15 323.95L289.85 323.95L289.85 93.775L213.125 17.05L213.125 17.05L213.125 17.05Z" id="Shape" fill="#788B9C" fill-rule="evenodd" stroke="none" />
        <path d="M208.862 98.0375L208.862 21.3125L211.36 21.3125L285.587 95.5397L285.587 98.0375L208.862 98.0375Z" id="Shape" fill="#FFFFFF" stroke="none" />
        <path d="M213.125 29.1044L277.796 93.775L213.125 93.775L213.125 29.1044M213.125 17.05L204.6 17.05L204.6 102.3L289.85 102.3L289.85 93.775L213.125 17.05L213.125 17.05L213.125 17.05ZM102.3 136.4L238.7 136.4L238.7 144.925L102.3 144.925L102.3 136.4ZM102.3 161.975L204.6 161.975L204.6 170.5L102.3 170.5L102.3 161.975ZM102.3 187.55L238.7 187.55L238.7 196.075L102.3 196.075L102.3 187.55ZM102.3 213.125L204.6 213.125L204.6 221.65L102.3 221.65L102.3 213.125ZM102.3 238.7L238.7 238.7L238.7 247.225L102.3 247.225L102.3 238.7Z" id="Shape" fill="#788B9C" fill-rule="evenodd" stroke="none" />
      </g>
    </g>
    <path d="M17.999 233L147.001 233Q147.443 233 147.884 233.022Q148.326 233.043 148.765 233.087Q149.205 233.13 149.642 233.195Q150.079 233.26 150.512 233.346Q150.946 233.432 151.374 233.539Q151.803 233.647 152.226 233.775Q152.649 233.903 153.065 234.052Q153.481 234.201 153.889 234.37Q154.297 234.539 154.697 234.728Q155.096 234.917 155.486 235.125Q155.875 235.334 156.254 235.561Q156.633 235.788 157.001 236.033Q157.368 236.279 157.723 236.542Q158.078 236.805 158.419 237.086Q158.761 237.366 159.088 237.663Q159.416 237.959 159.728 238.272Q160.041 238.584 160.337 238.912Q160.634 239.239 160.914 239.581Q161.195 239.922 161.458 240.277Q161.721 240.632 161.967 240.999Q162.212 241.367 162.439 241.746Q162.666 242.125 162.875 242.514Q163.083 242.904 163.272 243.303Q163.461 243.703 163.63 244.111Q163.799 244.519 163.948 244.935Q164.097 245.351 164.225 245.774Q164.353 246.197 164.461 246.626Q164.568 247.054 164.654 247.488Q164.74 247.921 164.805 248.358Q164.87 248.795 164.913 249.235Q164.957 249.674 164.978 250.116Q165 250.557 165 250.999L165 275.001Q165 275.443 164.978 275.884Q164.957 276.326 164.913 276.765Q164.87 277.205 164.805 277.642Q164.74 278.079 164.654 278.512Q164.568 278.946 164.461 279.374Q164.353 279.803 164.225 280.226Q164.097 280.649 163.948 281.065Q163.799 281.481 163.63 281.889Q163.461 282.297 163.272 282.697Q163.083 283.096 162.875 283.486Q162.666 283.875 162.439 284.254Q162.212 284.633 161.967 285.001Q161.721 285.368 161.458 285.723Q161.195 286.078 160.914 286.419Q160.634 286.761 160.337 287.088Q160.041 287.416 159.728 287.728Q159.416 288.041 159.088 288.337Q158.761 288.634 158.419 288.914Q158.078 289.195 157.723 289.458Q157.368 289.721 157.001 289.967Q156.633 290.212 156.254 290.439Q155.875 290.666 155.486 290.875Q155.096 291.083 154.697 291.272Q154.297 291.461 153.889 291.63Q153.481 291.799 153.065 291.948Q152.649 292.097 152.226 292.225Q151.803 292.353 151.374 292.461Q150.946 292.568 150.512 292.654Q150.079 292.74 149.642 292.805Q149.205 292.87 148.765 292.913Q148.326 292.957 147.884 292.978Q147.443 293 147.001 293L17.999 293Q17.5571 293 17.1158 292.978Q16.6745 292.957 16.2348 292.913Q15.7951 292.87 15.358 292.805Q14.9209 292.74 14.4876 292.654Q14.0542 292.568 13.6256 292.461Q13.197 292.353 12.7742 292.225Q12.3513 292.097 11.9353 291.948Q11.5193 291.799 11.1111 291.63Q10.7029 291.461 10.3034 291.272Q9.90401 291.083 9.51433 290.875Q9.12465 290.666 8.74567 290.439Q8.36668 290.212 7.99929 289.967Q7.63191 289.721 7.27701 289.458Q6.92211 289.195 6.58056 288.914Q6.239 288.634 5.91161 288.337Q5.58422 288.041 5.27178 287.728Q4.95935 287.416 4.66262 287.088Q4.36589 286.761 4.08558 286.419Q3.80528 286.078 3.54207 285.723Q3.27886 285.368 3.03338 285.001Q2.7879 284.633 2.56074 284.254Q2.33359 283.875 2.1253 283.486Q1.91701 283.096 1.7281 282.697Q1.53918 282.297 1.37009 281.889Q1.201 281.481 1.05215 281.065Q0.903293 280.649 0.775031 280.226Q0.646768 279.803 0.539407 279.374Q0.432047 278.946 0.345846 278.512Q0.259645 278.079 0.194812 277.642Q0.129979 277.205 0.0866701 276.765Q0.0433612 276.326 0.0216806 275.884Q0 275.443 0 275.001L0 250.999Q0 250.557 0.0216806 250.116Q0.0433612 249.674 0.0866701 249.235Q0.129979 248.795 0.194812 248.358Q0.259645 247.921 0.345846 247.488Q0.432047 247.054 0.539407 246.626Q0.646768 246.197 0.775031 245.774Q0.903293 245.351 1.05215 244.935Q1.201 244.519 1.37009 244.111Q1.53918 243.703 1.7281 243.303Q1.91701 242.904 2.1253 242.514Q2.33359 242.125 2.56074 241.746Q2.7879 241.367 3.03338 240.999Q3.27886 240.632 3.54207 240.277Q3.80528 239.922 4.08558 239.581Q4.36589 239.239 4.66262 238.912Q4.95935 238.584 5.27178 238.272Q5.58422 237.959 5.91161 237.663Q6.239 237.366 6.58055 237.086Q6.92211 236.805 7.27701 236.542Q7.63191 236.279 7.99929 236.033Q8.36668 235.788 8.74566 235.561Q9.12465 235.334 9.51433 235.125Q9.90401 234.917 10.3034 234.728Q10.7029 234.539 11.1111 234.37Q11.5193 234.201 11.9353 234.052Q12.3513 233.903 12.7742 233.775Q13.197 233.647 13.6256 233.539Q14.0542 233.432 14.4876 233.346Q14.9209 233.26 15.358 233.195Q15.7951 233.13 16.2348 233.087Q16.6745 233.043 17.1158 233.022Q17.5571 233 17.999 233L17.999 233Z" id="Rectangle-2" fill="#FF4C4C" fill-rule="evenodd" stroke="none" />
    <text font-size="40" x="80" y="275" class="texts" text-anchor="middle" fill="#fff">
      PDF
    </text>
  </g>
</svg>